Coordinates
version=1
nRows=18
nColumns=22
inDegrees=yes

Units are S.I. units (second, meters, Newtons, ...)
If the header above contains a line with 'inDegrees', this indicates whether rotational values are in degrees (yes) or radians (no).

endheader
time	pelvis_tilt	pelvis_list	pelvis_rotation	pelvis_tx	pelvis_ty	pelvis_tz	hip_flexion_r	hip_adduction_r	hip_rotation_r	knee_angle_r	ankle_angle_r	subtalar_angle_r	hip_flexion_l	hip_adduction_l	hip_rotation_l	knee_angle_l	ankle_angle_l	subtalar_angle_l	lumbar_extension	lumbar_bending	lumbar_rotation
      3.79000000	      3.21995730	      1.35936935	      3.21270385	      0.68678510	      0.89849980	      0.02292950	     22.17196896	     -2.49570176	     -7.18845728	     -6.43588533	     -2.87903383	      9.44046702	    -12.45080537	      2.00090868	     -3.15740323	    -22.80638743	     15.66022085	     -4.18771588	     -7.86426364	     -5.24575123	     -9.08539932
      3.80000000	      3.33170320	      1.26778079	      3.30216059	      0.69687760	      0.89749541	      0.02436365	     22.08834021	     -2.34725717	     -6.75803637	     -7.61536188	     -3.06975382	      9.15260018	    -12.90808550	      1.70670587	     -2.97139356	    -23.42233015	     15.36294632	     -3.98516991	     -7.86077366	     -5.18010699	     -9.06349300
      3.81000000	      3.42855764	      1.10591998	      3.36722504	      0.70721920	      0.89656931	      0.02596165	     21.96027841	     -2.07562457	     -6.28883106	     -8.77904206	     -3.36708419	      8.87858065	    -13.31463181	      1.33545861	     -2.84194182	    -24.11190067	     14.95715560	     -3.83637288	     -7.79888814	     -5.04275097	     -9.02324214
      3.82000000	      3.54209951	      0.88991281	      3.40443286	      0.71772733	      0.89575931	      0.02775748	     21.75188812	     -1.68948109	     -5.81813911	     -9.85328849	     -3.76939026	      8.40944964	    -13.67668472	      0.90079432	     -2.77585949	    -24.92371770	     14.52215857	     -3.60434643	     -7.73200992	     -4.86261191	     -8.93813483
      3.83000000	      3.63619260	      0.60284001	      3.42845115	      0.72846360	      0.89508655	      0.02969351	     21.51713320	     -1.19344394	     -5.46433153	    -10.83754723	     -4.24305682	      7.84501805	    -13.97040340	      0.38567919	     -2.77962366	    -25.81706421	     13.90573188	     -3.40133983	     -7.60253167	     -4.61187713	     -8.86009864
      3.84000000	      3.70675292	      0.24110057	      3.43405184	      0.73933930	      0.89457363	      0.03176767	     21.26263471	     -0.59221524	     -5.22159559	    -11.69322441	     -4.83308155	      7.23279485	    -14.15188433	     -0.21222181	     -2.85986535	    -26.85512307	     13.13846294	     -3.25326439	     -7.41867480	     -4.29125838	     -8.74452977
      3.85000000	      3.76947674	     -0.17802986	      3.43130390	      0.75032606	      0.89429175	      0.03392420	     20.99383323	      0.07368249	     -5.15237483	    -12.46341574	     -5.47314297	      6.48682894	    -14.23432404	     -0.87352441	     -2.97890207	    -28.02937318	     12.16500512	     -3.10547647	     -7.20519813	     -3.91487981	     -8.60130040
      3.86000000	      3.81479189	     -0.64466270	      3.42008464	      0.76132841	      0.89425948	      0.03613398	     20.73203223	      0.77857017	     -5.21242160	    -13.17149766	     -6.19721790	      5.87107123	    -14.17594245	     -1.59177227	     -3.15814782	    -29.37878209	     10.99808580	     -3.01890136	     -6.96604413	     -3.49332514	     -8.44157351
      3.87000000	      3.88922817	     -1.12558369	      3.39601504	      0.77235526	      0.89455341	      0.03832915	     20.46264871	      1.47193607	     -5.46032986	    -13.92856514	     -6.77884362	      5.00913045	    -14.05250131	     -2.32420419	     -3.35438421	    -30.84217854	      9.56440139	     -2.84982145	     -6.75719029	     -3.04809156	     -8.29174990
      3.88000000	      3.95746526	     -1.61354734	      3.36511718	      0.78327190	      0.89514794	      0.04049177	     20.17913738	      2.14386237	     -5.74866104	    -14.64683936	     -7.35675322	      4.51126825	    -13.78017151	     -3.06450038	     -3.55448859	    -32.48198257	      7.89107821	     -2.74926199	     -6.55793365	     -2.59463213	     -8.12872780
      3.89000000	      4.05910049	     -2.09007252	      3.31752254	      0.79407224	      0.89604822	      0.04259661	     19.88237669	      2.77376555	     -6.13149461	    -15.43745941	     -7.70002546	      3.85207496	    -13.42727003	     -3.79313157	     -3.75898079	    -34.24501448	      6.00541565	     -2.51295079	     -6.41494156	     -2.14182689	     -7.97572640
      3.90000000	      4.17182971	     -2.55178040	      3.26151746	      0.80466768	      0.89723135	      0.04463305	     19.52917531	      3.37385335	     -6.45933724	    -16.15645795	     -7.94828019	      3.43803275	    -12.94678850	     -4.50405081	     -3.92955455	    -36.15754527	      3.93175323	     -2.27324238	     -6.31276347	     -1.69794650	     -7.81432231
      3.91000000	      4.29975275	     -2.99332042	      3.19422099	      0.81502296	      0.89865419	      0.04660689	     19.11816966	      3.95217213	     -6.69894075	    -16.80580161	     -8.08697205	      3.13077719	    -12.35194559	     -5.19069606	     -4.05814869	    -38.20102299	      1.73700592	     -2.00364023	     -6.25832399	     -1.26733330	     -7.65662464
      3.92000000	      4.43106000	     -3.40582530	      3.11954146	      0.82511593	      0.90024774	      0.04851855	     18.64933634	      4.50807509	     -6.84801606	    -17.35175770	     -8.11713349	      2.86795415	    -11.63134448	     -5.84583482	     -4.14008898	    -40.37426712	     -0.49028845	     -1.69784062	     -6.23718097	     -0.86515797	     -7.47188932
      3.93000000	      4.56003143	     -3.78108385	      3.03724417	      0.83493689	      0.90194097	      0.05036036	     18.14604999	      5.03809879	     -6.89358690	    -17.82543990	     -8.03424318	      2.62824131	    -10.79510123	     -6.45375890	     -4.16203252	    -42.64746219	     -2.65728450	     -1.38252209	     -6.23918116	     -0.49912504	     -7.26939810
      3.94000000	      4.68145384	     -4.09839543	      2.95757020	      0.84448155	      0.90367978	      0.05212295	     17.60539540	      5.52130436	     -6.84727428	    -18.20431772	     -7.86831309	      2.41054827	     -9.84495086	     -6.99782001	     -4.13812683	    -45.00141979	     -4.68592524	     -1.11766348	     -6.25855167	     -0.19817684	     -7.05108879
      3.95000000	      4.78746815	     -4.34590563	      2.88898106	      0.85375012	      0.90540182	      0.05380335	     17.04671176	      5.94489283	     -6.72460467	    -18.50814349	     -7.62352906	      2.18622304	     -8.78830454	     -7.46794583	     -4.08207346	    -47.39369676	     -6.48951089	     -0.92210121	     -6.28200742	      0.02379984	     -6.83842303
      3.96000000	      4.87229373	     -4.51423218	      2.83618502	      0.86274238	      0.90706497	      0.05539094	     16.48029849	      6.29446982	     -6.55676843	    -18.74182582	     -7.30609231	      1.93318699	     -7.63972649	     -7.85052958	     -3.99930293	    -49.76971423	     -7.99453923	     -0.80031804	     -6.30249087	      0.15295055	     -6.62627211
